<?xml version="1.0" standalone="no"?><!DOCTYPE svg PUBLIC "-//W3C//DTD SVG 1.1//EN" "http://www.w3.org/Graphics/SVG/1.1/DTD/svg11.dtd"><svg t="1711889824657" class="icon" viewBox="0 0 1024 1024" version="1.1" xmlns="http://www.w3.org/2000/svg" p-id="8934" xmlns:xlink="http://www.w3.org/1999/xlink" width="200" height="200"><path d="M512 512m-470.032787 0a470.032787 470.032787 0 1 0 940.065574 0 470.032787 470.032787 0 1 0-940.065574 0Z" fill="#9EDFC7" p-id="8935"></path><path d="M512 62.95082c119.946492 0 232.708197 46.709508 317.523934 131.521049C914.339672 279.287607 961.04918 392.053508 961.04918 512c0 119.942295-46.709508 232.708197-131.525246 317.523934S631.942295 961.04918 512 961.04918c-247.606557 0-449.04918-201.442623-449.04918-449.04918S264.393443 62.95082 512 62.95082zM20.983607 512c0 270.747279 220.269115 491.016393 491.016393 491.016393 131.155934 0 254.459803-51.074098 347.194754-143.821639C951.938098 766.455607 1003.016393 643.155934 1003.016393 512s-51.074098-254.459803-143.821639-347.198951C766.459803 72.057705 643.155934 20.983607 512 20.983607 241.252721 20.983607 20.983607 241.252721 20.983607 512z" fill="#6E6E96" p-id="8936"></path><path d="M113.873836 265.887475c7.944393 4.137967 195.701508 100.179934 299.654295-3.768655 83.728787-83.728787 301.060197-179.183213 447.874099-32.369312a20.983607 20.983607 0 1 0 29.670819-29.675016c-93.40223-93.40223-203.918689-96.80577-280.173115-83.21259-100.016262 17.827672-182.863738 71.394623-227.055213 115.581901-82.423607 82.423607-248.907541-2.895738-250.577836-3.768655a20.983607 20.983607 0 1 0-19.393049 37.212327zM96.352525 733.041311l-0.016787 0.008394c36.297443-16.824656 140.619541-50.369049 186.791869-4.196721 14.32341 14.32341 19.497967 26.363803 24.500459 38.009705 21.189246 49.294689 40.67882 66.345967 279.560393 66.345967 134.865836 0 153.419541 77.86177 154.141377 81.17718a18.93141 18.93141 0 0 1-0.436459-4.238688l0.386098 4.007868a20.983607 20.983607 0 0 0 41.195017-8.015737c-0.919082-4.691934-24.336787-114.897836-195.29023-114.897836-223.404066 0-230.030689-15.414557-241.005114-40.951607-5.640393-13.114754-13.362361-31.080918-33.380722-51.107672-76.363541-76.367738-227.756066-7.163803-234.164459-4.188328a20.983607 20.983607 0 0 0 17.718558 38.047475zM939.112918 373.562754a58.456131 58.456131 0 0 1-0.155279-0.407082c0.411279 1.191869 3.714098 11.969049-4.624787 22.733639-8.918033 11.515803-43.234623 37.304656-168.99777 28.042492-187.597639-13.815607-341.986623 58.070033-354.694295 131.575607-2.173902 12.564984-4.10859 54.981246 62.199606 73.25377l73.95882 20.039345c186.523279 50.075279 249.364984 66.937705 278.24682 168.015737a20.992 20.992 0 0 0 40.359869-11.53259c-35.411934-123.91659-115.128656-145.315672-307.716197-197.015082l-73.69023-19.968c-12.984656-3.584-34.413115-11.671082-32-25.646164 6.114623-35.35318 119.048393-110.952918 310.25941-96.872918 108.653115 8.003148 178.045902-7.314885 206.256263-45.526033 17.491934-23.682098 14.319213-50.083672 9.694426-61.952a20.983607 20.983607 0 0 0-39.096656 15.259279z" fill="#6E6E96" p-id="8937"></path><path d="M962.194885 555.566164l0.113312-0.050361c-0.566557 0.226623-57.679738 22.368525-161.074361 3.009049a20.975213 20.975213 0 0 0-24.487869 16.757509 20.975213 20.975213 0 0 0 16.757508 24.487869c116.270164 21.776787 183.220459-3.470689 189.301509-8.032525l-4.55764 2.59777a20.975213 20.975213 0 0 0 11.352131-27.412983 20.958426 20.958426 0 0 0-27.40459-11.356328zM36.649967 485.229115c5.170361 2.006033 128.205639 48.556066 268.157902 0.272787a20.983607 20.983607 0 0 0-13.685508-39.671607c-124.948984 43.108721-238.197508 0.692459-239.326427 0.260197a21.243803 21.243803 0 0 0-2.463475-0.78059l2.501246 0.79318a20.983607 20.983607 0 0 0-15.183738 39.126033z" fill="#6E6E96" p-id="8938"></path><path d="M504.198295 729.528656a13.987672 13.987672 0 1 0 0 27.971147 13.987672 13.987672 0 0 0 0-27.971147z m54.557377-167.868853a23.78282 23.78282 0 1 0-0.004197-47.561442 23.78282 23.78282 0 0 0 0.004197 47.561442z m120.303213 195.848394a23.78282 23.78282 0 1 0 0.01259-47.561443 23.78282 23.78282 0 0 0-0.01259 47.561443z m78.344394-405.684459a26.577836 26.577836 0 1 0 0 53.155672 26.577836 26.577836 0 1 0 0-53.155672z m-509.204984-92.327869a15.389377 15.389377 0 1 0 0 30.782951 15.389377 15.389377 0 0 0 0-30.782951zM497.903213 37.770492c-259.592393 0-470.032787 210.440393-470.032787 470.032787 0 259.588197 210.440393 470.032787 470.032787 470.032787 259.588197 0 470.032787-210.44459 470.032787-470.032787 0-259.592393-210.44459-470.032787-470.032787-470.032787zM80.690361 481.628328a392.032525 392.032525 0 0 1-0.360918-16.207738c0-6.177574 0.159475-12.317377 0.444852-18.423606-0.004197 0.29377-0.348328 25.004066-0.083934 34.631344z m0.083934-34.660721C90.40577 241.37023 260.125377 77.639344 468.106492 77.639344c76.493639 0 147.804328 22.146098 207.88459 60.374033C593.836066 138.013377 372.44223 265.362885 386.098361 276.983607c284.269115-162.681705 359.700984-82.818098 371.628065-69.434755 61.062295 68.528262 98.161311 158.862689 98.161312 257.867541-106.76459-10.537967-326.391607-7.277115-396.338361 83.653246 92.327869-67.147541 401.487738-72.74177 390.811279-18.184393a385.162492 385.162492 0 0 1-45.349771 126.585705 39.18059 39.18059 0 0 0-16.937967-3.873574c-21.743213 0-39.373639 17.622033-39.373639 39.365246a39.214164 39.214164 0 0 0 11.30177 27.585049c-23.476459-49.773115-352.054557-157.935213-348.021508-146.297705 36.372984 104.918033 332.938492 123.106623 292.142164 198.765115-39.134426 72.578098-147.17482 80.174164-236.011016 80.174164-80.660984 0-155.559869-24.634754-217.608394-66.774033a28.537705 28.537705 0 1 0-31.676852-28.357246c0 1.611541 0.167869 3.185311 0.423868 4.721312-52.962623-44.371934-93.893246-102.626623-117.189245-169.169836-35.600787-89.314623 232.288525-64.830951 214.104131-126.384263-3.62177-17.454164-233.76577 42.084721-234.95764 23.858361M586.731016 161.57377a18.180197 18.180197 0 0 0-18.180196 18.184394 18.184393 18.184393 0 1 0 18.180196-18.184394z" fill="#6E6E96" opacity=".15" p-id="8939"></path></svg>